<svg viewBox="0 0 200 138" focusable="false" class="chakra-icon css-mtwpdw" xmlns="http://www.w3.org/2000/svg"><title>Two Chefs Brewing</title><path d="M24.3287 44.3151C25.3305 44.4216 26.2897 44.0593 27.1636 43.5903C28.3998 42.9083 29.4869 41.7999 29.828 40.3931C30.0411 39.0716 29.9558 37.75 29.9558 36.4072C29.8493 33.5936 29.6574 30.7587 29.2524 27.9664C28.5917 24.0018 28.0375 20.0159 27.4407 16.03L27.4833 15.9021C28.8048 15.2627 30.1264 14.6019 31.3626 13.7919C31.7037 15.5398 31.9381 17.2876 32.2152 19.0354C32.9613 23.7247 33.8778 28.3927 35.3059 32.9328C36.1372 35.5759 37.0111 38.1976 38.3113 40.6489C38.759 41.4375 39.2279 42.3114 40.0592 42.7804C40.656 43.1001 41.2528 42.5885 41.6791 42.2262C42.8941 41.0325 43.7254 39.5192 44.514 38.0271C45.6224 35.8317 46.5816 33.551 47.1571 31.1637C48.1589 33.3804 49.2246 35.5759 50.5675 37.6221C51.1643 38.496 51.7824 39.4126 52.6564 40.052C53.04 40.3291 53.6155 40.521 54.0418 40.2013C54.7239 39.6897 55.1289 38.901 55.5126 38.155C56.4931 36.0022 57.0686 33.6789 57.5801 31.3768C58.6246 26.6236 58.9656 21.7424 59.1788 16.8826C59.2853 14.069 59.328 11.2341 59.0509 8.42053C58.923 7.41873 58.7951 6.3956 58.3688 5.47906C58.1983 5.13802 57.8999 4.75435 57.4736 4.79698C56.5357 4.92487 55.8536 5.71352 55.4486 6.52349C54.7452 7.97292 54.4895 9.57154 54.2124 11.1275C53.4237 16.3924 52.5924 21.6785 52.294 27.0072C51.1643 23.1492 50.0986 19.2273 48.4573 15.5398C48.031 14.6658 47.626 13.728 46.8374 13.1098C46.3897 12.7475 45.8569 13.1738 45.5585 13.5361C44.6845 14.6232 44.2582 15.9661 43.8106 17.2876C42.8301 20.5062 42.1694 23.8526 41.7431 27.1778C40.5494 22.9148 39.441 18.6304 38.0342 14.4101C37.6932 13.3869 37.3522 12.3638 36.9046 11.3833C38.0129 10.7865 39.1213 10.1897 40.0379 9.35839C40.5707 8.91078 40.7839 8.2287 40.9331 7.58925C41.2102 6.3956 41.3594 5.13802 41.1462 3.90174C41.0397 3.45413 40.9118 2.79336 40.3576 2.75073C39.4197 2.77205 38.5245 3.15572 37.6506 3.45413C33.4302 5.1167 29.4017 7.16295 25.3518 9.18787C21.7282 10.9783 18.126 12.8114 14.7156 14.9429C13.1596 15.9661 11.5823 17.0105 10.346 18.4173C9.70656 19.1633 9.15237 20.1438 9.3442 21.1669C9.45078 21.8703 10.1542 22.2753 10.7936 22.3179C12.0086 22.4458 13.2235 22.1261 14.3746 21.7851C16.3569 21.1669 18.2965 20.3143 20.1509 19.3551C20.428 22.8082 20.7477 26.2612 21.0888 29.6929C21.4298 33.0394 21.7496 36.4072 22.3037 39.7323C22.5169 40.9046 22.73 42.0983 23.199 43.1854C23.4334 43.6969 23.7532 44.2511 24.3287 44.3151Z" fill="white"></path><path d="M68.8116 35.3845C70.7726 36.0453 72.9041 35.5976 74.8012 34.9156C77.2311 34.0203 79.2986 32.3151 80.7054 30.1623C82.5385 27.37 83.3911 24.0662 83.8387 20.7837C84.2224 17.693 84.3716 14.4958 83.3698 11.5116C82.5598 8.91121 80.812 6.58787 78.4247 5.24502C76.7408 4.30716 74.7585 3.77428 72.8615 4.11533C70.1332 4.60557 67.6606 6.2042 65.9128 8.35702C63.3976 11.4477 62.3106 15.4762 62.0761 19.3982C61.8843 23.0857 62.1827 26.9011 63.7174 30.3115C64.6978 32.5283 66.4244 34.6171 68.8116 35.3845ZM69.8774 17.2241C70.3676 15.9239 70.9858 14.5597 72.1794 13.771C72.9468 13.2595 73.9699 13.43 74.652 14.0055C75.9096 15.0499 76.4851 16.6699 76.6982 18.2472C76.9327 20.4426 76.5703 22.702 75.8243 24.7696C75.2914 26.1551 74.5454 27.5832 73.2025 28.3079C72.3926 28.7768 71.2842 28.7342 70.6447 28.0308C69.6003 26.9224 69.3019 25.3451 69.1953 23.8957C69.1527 21.3379 69.8348 18.6522 71.6252 16.7551C71.0071 16.8191 70.4316 16.9896 69.8774 17.2241Z" fill="white"></path><path d="M56.2993 103.55C53.8907 102.932 51.3756 103.23 48.9883 103.742C52.5052 100.608 55.4467 96.7504 57.1946 92.3595C57.9406 90.3346 58.5587 88.1178 58.0045 85.965C57.6848 84.7287 56.5977 83.8335 55.3615 83.6417C53.1021 83.2367 50.8214 83.8335 48.6685 84.473C45.2155 85.5813 41.9117 87.1373 38.7357 88.8852C36.6042 90.1001 34.4727 91.3364 32.6183 92.9563C30.5081 94.7255 28.4832 96.6225 26.6927 98.7327C26.1599 99.4148 25.563 100.097 25.3073 100.928C25.1367 101.482 25.7549 101.887 26.2451 101.93C27.1403 101.994 27.9716 101.632 28.7816 101.291C30.1671 100.651 31.446 99.8198 32.6823 98.9246C32.4478 102.42 32.8102 105.937 33.0872 109.412C33.5135 113.952 34.0464 118.47 34.7711 122.968C35.0056 124.332 35.2188 125.718 35.7303 126.996C36.05 127.785 36.5829 128.531 37.3929 128.851C38.3947 129.277 39.5244 129.149 40.5688 128.957C42.9987 128.51 45.2155 127.316 47.2191 125.931C50.118 123.927 52.6758 121.476 54.9352 118.769C56.7256 116.573 58.3669 114.207 59.4113 111.543C60.0934 109.817 60.4344 107.813 59.6458 106.065C59.0063 104.744 57.6635 103.891 56.2993 103.55ZM42.7216 93.8942C44.0645 93.2121 45.386 92.4448 46.8354 92.0398C47.3683 91.9119 48.0717 91.8053 48.4767 92.2743C48.8817 92.8071 48.7751 93.5319 48.6259 94.15C48.1783 95.7699 47.2831 97.198 46.3452 98.5835C45.0237 100.523 43.5529 102.335 42.0182 104.104C41.9543 100.694 42.2527 97.262 42.7216 93.8942ZM52.2495 111.245C51.8658 112.524 51.0345 113.589 50.2032 114.612C48.6899 116.382 47.006 118.002 45.1516 119.408C44.6613 119.749 44.1711 120.176 43.5529 120.24C43.1693 119.643 43.1053 118.918 42.9774 118.236C42.743 116.552 42.5724 114.847 42.4232 113.142C44.3629 111.628 46.4944 110.285 48.8817 109.603C49.7556 109.369 50.7361 109.177 51.61 109.561C52.2495 109.838 52.4626 110.627 52.2495 111.245Z" fill="white"></path><path d="M29.017 84.2172C29.422 85.4961 29.8696 86.7963 30.7009 87.8834C31.0632 88.3523 31.6814 88.7999 32.2995 88.5441C33.5571 88.0965 34.3244 86.8816 34.8573 85.7305C36.1788 82.6612 36.3067 79.2508 36.3707 75.9469C38.5661 74.9665 40.7403 73.9646 42.8291 72.7497C43.1702 75.6485 43.4686 78.5687 44.172 81.4036C44.3638 82.0004 44.4704 82.7038 44.9606 83.1301C45.728 83.2367 46.4953 82.853 47.1348 82.4693C47.9874 81.8938 48.8187 81.1265 49.0744 80.1034C49.4368 78.7605 49.6073 77.3537 49.7778 75.9683C49.991 73.8794 50.0976 71.7692 49.7778 69.6803C50.5878 68.913 51.3338 68.0817 52.0799 67.2291C52.3996 70.3624 52.6341 73.517 53.1243 76.6503C53.3588 77.844 53.6785 79.336 54.9361 79.8476C56.62 80.4018 58.4531 80.0181 60.0943 79.5279C62.844 78.6966 65.1886 77.0127 67.6398 75.5633C69.2598 74.5401 70.9437 73.581 72.3078 72.1955C72.8407 71.6839 73.2244 71.0232 73.5015 70.3411C74.0344 71.8971 74.5033 73.517 75.3985 74.9238C75.6969 75.478 76.4216 75.4567 76.9545 75.3927C78.2547 75.2009 79.2992 74.0925 79.5976 72.8349C79.9599 71.3855 80.1731 69.9148 80.3862 68.444C80.6207 66.5257 80.8552 64.586 80.8339 62.6464C83.0933 61.133 85.374 59.5557 87.1431 57.4668C87.7399 56.6995 88.4646 55.719 88.1662 54.6745C87.8891 53.8859 86.9086 53.8006 86.2052 53.8859C84.2443 54.1417 82.4325 54.9729 80.6633 55.7829C80.642 53.4383 80.642 51.0936 80.5141 48.749C82.603 47.875 84.6706 46.9159 86.6315 45.7649C87.4841 45.2533 88.3368 44.6991 89.0188 43.9744C89.5517 43.3349 89.8928 42.5676 90.1912 41.8003C90.8946 39.9245 91.3422 37.9209 91.3422 35.9173C91.2782 35.0221 91.2143 34.0203 90.5535 33.3382C89.8075 32.9758 88.9762 33.3169 88.2302 33.5087C85.374 34.4679 82.7096 35.9599 80.237 37.6651C78.6384 38.7522 76.9119 39.6687 75.3559 40.7984C74.1196 41.6937 73.0112 42.8234 72.4997 44.2941C71.9029 45.9993 71.7537 47.8111 71.6258 49.6016C71.37 54.1843 71.7963 58.7883 72.2865 63.3498C72.4997 65.1615 72.6915 66.9733 73.0965 68.7425C71.3487 68.3375 69.5156 68.444 67.7464 68.7851C65.1034 69.2966 62.6095 70.3624 60.2435 71.6626C60.137 70.3411 59.9664 68.9982 59.9451 67.6767C62.2045 66.4618 64.4 65.0763 66.3183 63.3498C67.2136 62.4972 68.1088 61.5806 68.4924 60.387C68.6417 59.8541 68.7269 59.0868 68.1514 58.7883C67.2775 58.4047 66.297 58.6178 65.4231 58.7883C63.5047 59.2146 61.6716 59.918 59.9025 60.7493C59.9451 58.831 59.9878 56.9339 60.1156 55.0156C63.1637 53.2464 66.2331 51.392 68.7695 48.9195C69.6648 48.0242 70.5174 47.0011 70.6879 45.7009C70.8584 44.7417 71.2421 43.676 70.8158 42.7381C70.3255 41.9921 69.2811 42.0987 68.5138 42.2052C65.9986 42.6529 63.6539 43.7612 61.3732 44.8909C58.8581 46.1911 56.3642 47.5979 54.1261 49.3458C53.5293 49.8147 52.8898 50.3263 52.6767 51.0936C52.1651 52.7349 52.0586 54.4401 51.9307 56.1453C51.7815 58.5965 51.7601 61.069 51.888 63.5203C51.2059 63.5416 50.5452 63.6055 49.8844 63.7334C49.8631 61.0477 49.7778 58.3407 49.65 55.655C49.5007 53.1399 49.3515 50.6247 48.8613 48.1521C48.6908 47.3848 48.5416 46.5961 48.1153 45.9354C47.7742 45.4025 47.0708 45.1467 46.4527 45.3599C45.2804 45.7222 44.4704 46.724 43.767 47.6832C43.1915 48.5358 42.5734 49.431 42.3815 50.4542C42.1044 51.861 42.0405 53.2891 41.9765 54.7172C41.87 58.426 41.9552 62.1348 42.3602 65.801L42.2963 65.9076C40.2287 66.9733 38.0972 67.9964 36.1149 69.2327C36.2215 64.2024 36.3067 59.1507 35.9657 54.1203C35.8591 52.9693 35.7952 51.797 35.4541 50.6886C35.3049 50.1344 34.7721 49.6868 34.1752 49.6868C33.4292 49.6655 32.7684 50.0492 32.1716 50.4542C31.0846 51.2428 30.168 52.2659 29.4007 53.353C28.9317 54.0351 28.4415 54.7598 28.2923 55.5911C27.9086 57.5308 27.9086 59.5344 27.8447 61.5167C27.8234 66.1633 27.9726 70.7887 28.3349 75.4141C27.2905 75.478 26.6297 76.3306 25.9903 77.0553C24.008 79.2508 22.0896 81.5315 19.7023 83.2793C18.6579 84.004 17.4856 84.75 16.164 84.6435C15.0983 84.5369 14.2883 83.6843 13.7981 82.7891C12.9028 81.1478 12.5405 79.2508 12.2847 77.4177C12.0502 75.4141 11.8797 73.3891 12.1781 71.3855C12.5405 68.8703 13.1373 66.3765 13.9473 63.9466C14.5228 62.3266 15.1622 60.6854 16.228 59.3212C16.3772 61.5593 16.5051 63.8187 16.5477 66.0568C16.5051 68.3801 16.0788 70.7034 16.2919 73.0268C16.3772 73.7089 16.4838 74.4336 16.9527 74.9664C17.4216 75.4567 18.189 75.3714 18.8071 75.3075C20.7681 74.9665 22.3454 73.517 23.3259 71.8545C24.2211 70.3837 24.5408 68.6572 24.7753 66.9733C25.1377 64.0745 25.2016 61.1543 24.9245 58.2341C24.69 56.1666 24.3277 54.0564 23.3685 52.1807C22.8143 51.1149 21.8978 50.0918 20.6615 49.9213C19.6171 49.8147 18.5939 50.1984 17.6561 50.6247C15.3114 51.7544 13.3078 53.4809 11.5387 55.3566C7.44617 59.8115 4.7818 65.5026 3.73736 71.4282C3.05528 75.478 3.03396 79.6558 3.73736 83.7056C4.27023 86.4553 5.25073 89.2902 7.38223 91.2298C9.19401 92.9137 11.7944 93.5105 14.203 93.2121C17.4642 92.8924 20.3418 91.1659 23.0062 89.3754C25.1163 87.8194 27.2478 86.1995 29.017 84.2172Z" fill="white"></path><path d="M125.831 64.5431C125.554 63.9037 125.127 63.1577 124.36 63.0298C123.699 62.9019 123.273 63.5627 122.974 64.0529C122.122 65.6942 121.696 67.5273 121.248 69.3177C119.99 74.8596 119.266 80.5294 118.626 86.1779C117.39 83.3217 116.068 80.4655 114.321 77.8864C113.766 77.119 113.191 76.2877 112.296 75.8827C111.805 75.6909 111.379 76.032 111.145 76.4156C110.569 77.2469 110.185 78.1635 109.802 79.08C108.395 82.5757 107.393 86.1992 106.327 89.8015C105.944 85.0908 105.475 80.3589 104.452 75.7335C104.153 74.5825 103.898 73.3889 103.279 72.3871C102.938 71.8329 102.192 71.9608 101.659 72.1313C100.338 72.6429 99.3574 73.7086 98.4835 74.7531C97.4391 74.476 96.352 74.6038 95.2863 74.7957C93.4745 75.1367 91.7053 75.6909 89.9788 76.309C87.7194 77.1403 85.4813 78.0782 83.3712 79.2505C82.7104 79.6342 82.0283 79.9966 81.5167 80.5721C81.0265 81.2115 80.9412 82.0641 80.856 82.8528C80.7494 84.6859 80.8773 86.519 80.9412 88.352C81.0478 90.4196 81.0265 92.4658 81.0691 94.5334C81.2396 98.7751 81.6873 102.995 82.1562 107.195C80.2378 104.189 77.8932 101.461 75.3567 98.9243C77.3603 96.132 78.8737 92.9348 79.6197 89.567C80.0247 87.606 80.2165 85.4532 79.3 83.5988C78.6179 82.192 77.0832 81.4247 75.5698 81.2755C73.5662 81.0836 71.6266 81.7657 69.8361 82.597C66.5536 84.1743 63.6974 86.4337 60.7559 88.5439C58.9015 89.8228 57.5373 91.9117 57.3029 94.1711C57.2602 94.6613 57.2602 95.3434 57.7931 95.5778C58.6883 95.8976 59.6475 95.6205 60.5214 95.386C60.3509 98.7112 60.6493 102.036 60.8625 105.361C61.1822 109.198 61.4806 113.035 62.1201 116.808C62.2906 117.575 62.3332 118.555 63.1645 118.918C64.486 119.579 65.9781 118.598 66.6175 117.447C67.1717 116.147 67.257 114.697 67.4275 113.312C67.7046 110.648 67.7899 107.983 67.8538 105.319C69.218 106.917 70.6887 108.41 72.1808 109.902C74.0991 111.777 76.0175 113.653 78.1277 115.316C78.7458 115.763 79.4492 116.403 80.2592 116.04C82.007 115.38 82.9662 113.61 83.7335 112.012C87.9326 111.202 91.9398 109.539 95.5633 107.301C97.2686 106.171 99.0377 104.935 100.04 103.081C100.317 102.463 100.679 101.567 100.061 101.034C99.2722 100.544 98.2917 100.715 97.4178 100.8C94.4976 101.248 91.684 102.271 88.9131 103.294C89.1262 101.248 89.2967 99.2014 89.4033 97.1552C91.7266 96.0894 94.0926 95.0237 96.2028 93.5742C97.162 92.9774 97.7162 91.9117 97.972 90.8459C98.1425 90.1425 97.908 89.3325 97.3112 88.8849C96.7144 88.6505 96.0749 88.7997 95.4568 88.8636C93.5384 89.1833 91.6627 89.7375 89.8296 90.377C89.8722 88.6718 90.0001 86.9666 90.0428 85.2614C92.8777 83.5775 95.4141 81.446 97.8441 79.2292C97.6096 81.5312 97.8441 83.8546 98.0998 86.1353C98.654 90.6754 99.5066 95.1729 100.7 99.5638C101.425 102.143 102.171 104.765 103.514 107.109C103.94 107.749 104.43 108.601 105.283 108.58C106.242 108.367 106.839 107.514 107.393 106.768C108.8 104.701 109.759 102.356 110.697 100.054C111.784 97.2617 112.743 94.4055 113.596 91.528C115.386 94.8958 116.878 98.4554 118.989 101.653C119.394 102.186 119.777 102.782 120.395 103.102C120.822 103.273 121.205 102.932 121.482 102.633C122.143 101.823 122.527 100.843 122.911 99.8835C123.763 97.5815 124.317 95.2155 124.85 92.8282C125.66 88.9915 126.278 85.1335 126.726 81.2541C127.11 77.4814 127.174 73.6447 126.875 69.8719C126.747 68.1241 126.534 66.2697 125.831 64.5431ZM72.5857 92.8495C71.4774 95.4926 69.5164 97.6454 67.5128 99.649C67.5128 96.9207 67.5341 94.1924 67.5767 91.4427C68.6211 90.6541 69.6443 89.8015 70.8805 89.3539C71.456 89.1407 72.2447 89.1407 72.5857 89.7162C73.2039 90.6754 72.9694 91.869 72.5857 92.8495Z" fill="white"></path><path d="M137.34 64.6076C137.105 63.8616 136.85 63.0729 136.295 62.4761C135.869 62.0498 135.208 62.0285 134.675 62.1777C133.098 62.604 131.798 63.755 130.881 65.0979C130.071 66.2489 129.858 67.6557 129.602 69.0198C129.07 72.5155 128.963 76.0325 128.856 79.5708C128.792 83.7912 128.792 88.0328 129.197 92.2319C129.432 94.3208 129.666 96.431 130.476 98.3706C130.796 99.0953 131.35 99.9906 132.288 99.9053C133.588 99.7135 134.462 98.5625 135.038 97.4754C136.167 95.1947 136.636 92.6582 137.041 90.1643C137.617 86.4342 137.851 82.6615 138.086 78.8887C138.278 76.2456 138.32 73.5812 138.214 70.9382C138.064 68.7854 137.894 66.6539 137.34 64.6076Z" fill="white"></path><path d="M191.501 60.5361C190.734 60.2164 189.882 60.4935 189.136 60.7493C187.345 61.4527 185.768 62.5611 184.19 63.6268C181.483 65.4812 178.563 67.0159 175.771 68.7424C174.982 69.254 174.023 69.6803 173.554 70.5542C172.915 71.7052 172.744 73.1973 173.277 74.4335C173.81 75.5632 175.174 76.0535 176.346 75.8616C178.158 75.6059 179.693 74.5188 181.057 73.3678C180.609 74.5827 180.077 75.7764 179.309 76.8208C178.371 78.1423 177.029 79.2081 175.473 79.6983C174.471 79.9754 173.448 79.4852 172.744 78.7818C171.615 77.6308 171.018 76.0535 170.698 74.4975C170.165 71.8544 170.25 69.1261 170.655 66.4617C171.146 63.4137 171.977 60.4296 173.341 57.6586C173.831 56.7421 174.343 55.8042 175.153 55.1434C175.643 54.6958 176.474 54.7384 176.879 55.2926C177.625 56.2092 177.796 57.4241 178.009 58.5325C178.222 59.5343 178.158 60.664 178.862 61.4953C179.757 62.5824 181.356 62.8168 182.677 62.4758C183.679 62.1774 184.297 61.2608 184.723 60.3656C185.661 58.3194 186.002 56.0387 185.938 53.8006C185.938 52.3938 185.491 51.0509 184.787 49.836C183.317 47.2782 180.78 45.168 177.796 44.7843C175.558 44.4859 173.298 45.3172 171.508 46.6387C169.526 48.0881 168.076 50.1344 166.947 52.2872C165.54 55.0368 164.645 57.9996 164.005 61.0051C163.6 62.9874 163.238 64.991 163.195 67.0372C163.067 65.6944 163.089 64.3515 163.046 62.9874C162.939 60.4509 162.79 57.9144 162.492 55.3992C162.193 53.2251 161.895 51.0296 161.064 49.0047C160.701 48.1734 160.147 47.1716 159.124 47.0863C158.122 47.0863 157.547 48.0242 157.184 48.8342C156.396 50.7312 156.119 52.7775 155.841 54.7811C155.202 60.323 155.202 65.9288 155.33 71.5134C153.113 68.103 150.619 64.8418 147.699 62.0069C146.569 60.9411 145.376 59.8754 143.926 59.2572C143.266 58.9801 142.285 58.8949 141.859 59.6196C141.262 60.6853 141.113 61.9429 140.9 63.1366C140.367 67.1864 140.281 71.2576 140.196 75.3288C140.154 78.8031 140.175 82.2775 140.367 85.7305C140.516 88.4801 140.729 91.2511 141.283 93.9581C141.518 95.0239 141.773 96.1109 142.37 97.0275C142.647 97.4751 143.138 97.9014 143.692 97.7522C144.651 97.5604 145.163 96.6225 145.504 95.7912C146.314 93.7023 146.591 91.4643 146.953 89.2688C147.358 85.7945 147.209 82.2988 147.06 78.8244C147.848 80.1247 148.701 81.3822 149.596 82.6185C151.514 85.2403 153.539 87.7981 155.927 89.9722C156.779 90.6969 157.675 91.4856 158.804 91.784C159.785 92.0184 160.616 91.2724 161.128 90.5264C162.172 88.9491 162.534 87.0734 162.833 85.2403C163.216 82.7677 163.259 80.2525 163.302 77.7587C163.643 79.8476 164.474 81.8512 165.604 83.6416C166.989 85.8158 169.035 87.6702 171.551 88.3736C173.682 88.9917 175.984 88.7146 178.052 87.926C180.247 87.0947 182.144 85.6239 183.7 83.8761C185.96 81.3396 187.622 78.3342 188.88 75.2009C190.137 72.0889 191.033 68.849 191.544 65.5238C191.736 64.181 191.906 62.7955 191.757 61.4314C191.8 61.1543 191.757 60.7706 191.501 60.5361Z" fill="white"></path><path d="M91.6407 50.6246C92.1949 51.9035 93.3673 52.8627 94.6888 53.2677C96.8416 53.9498 99.1436 53.7153 101.36 53.5874C102.703 53.5448 104.11 53.3743 105.41 53.7792C105.943 53.9498 106.604 54.3121 106.561 54.9516C106.433 55.6976 105.922 56.3157 105.432 56.8699C104.281 58.1701 102.98 59.3212 101.829 60.6214C100.891 61.6658 100.167 62.8595 99.3994 64.0318C98.6747 65.2254 97.886 66.4404 97.6729 67.8472C97.5663 68.5293 97.7368 69.4458 98.4829 69.6803C99.6339 70.0426 100.849 69.7868 102 69.4884C104.771 68.7211 107.329 67.1864 109.354 65.1402C112.21 62.3479 114.959 59.2572 116.43 55.4844C117.325 53.2037 117.56 50.6033 116.729 48.28C116.238 47.0224 114.853 46.4895 113.638 46.1911C110.206 45.4451 106.668 45.8714 103.193 45.6369C102.49 45.5729 101.744 45.509 101.126 45.1466C100.614 44.8482 100.636 44.1662 100.742 43.6759C101.083 42.4823 102.042 41.6297 102.959 40.8623C105.879 38.539 109.268 36.9404 112.338 34.8728C113.126 34.3399 113.915 33.7857 114.533 33.061C114.917 32.6134 115.087 32.0166 115.3 31.4837C115.684 30.4393 116.068 29.3522 116.068 28.2438C116.046 26.9223 115.364 25.7286 114.512 24.7695C113.915 24.2153 112.998 24.3858 112.274 24.5137C110.59 24.876 109.012 25.6007 107.478 26.3681C105.474 27.4338 103.535 28.5849 101.765 30.013C99.2289 32.1018 96.9908 34.5318 95.0511 37.1748C93.4525 39.3916 92.0457 41.8215 91.3423 44.4646C90.7881 46.4682 90.7881 48.7063 91.6407 50.6246Z" fill="white"></path><path d="M199.026 63.7333C198.237 62.6463 196.83 62.2626 195.53 62.2626C195.445 61.1968 195.21 60.0671 194.528 59.2358C194.358 59.0014 194.059 58.8095 194.081 58.4685C194.017 56.9978 193.612 55.5697 192.994 54.2481C191.885 51.9035 190.137 49.8359 187.942 48.4291C187.601 48.216 187.43 47.8323 187.175 47.5339C185.214 44.7842 182.229 42.6954 178.84 42.2264C176.219 41.8428 173.533 42.5248 171.274 43.8677C169.035 45.1892 167.202 47.1289 165.817 49.303C165.455 49.1751 165.071 49.1112 164.709 48.962C164.176 47.747 163.558 46.4894 162.534 45.6155C161.277 44.4858 159.401 44.2087 157.845 44.8269C156.673 45.2532 155.756 46.2123 155.138 47.2781C154.051 49.1751 153.625 51.3493 153.284 53.4808C152.836 56.5075 152.666 59.5769 152.58 62.6463C150.705 60.6 148.722 58.5538 146.25 57.2322C144.651 56.3583 142.562 56.1452 140.985 57.147C139.727 57.893 139.109 59.2785 138.704 60.6213C137.574 59.6408 135.997 59.2998 134.548 59.5982C132.224 60.0671 130.242 61.6231 128.835 63.4775C128.111 61.7937 126.576 60.4082 124.7 60.259C125.489 57.5306 125.489 54.5039 124.402 51.8608C123.72 50.2622 122.249 49.1538 120.65 48.5783C120.16 48.4717 120.203 47.9176 120.011 47.5552C119.393 45.9566 117.965 44.8056 116.387 44.1661C118.029 43.1856 119.67 42.1838 121.098 40.8836C121.801 40.2228 122.42 39.4555 122.761 38.5389C123.464 36.7485 124.189 34.8514 124.061 32.8904C123.976 30.9081 122.995 29.0964 121.716 27.6256C121.055 26.8796 120.117 26.432 119.158 26.2402C118.37 24.4497 117.24 22.4674 115.236 21.9132C113.147 21.359 110.973 22.0411 109.034 22.8084C106.305 23.9381 103.726 25.4302 101.296 27.1141C98.7172 28.9898 96.4578 31.2705 94.3902 33.7004C93.8574 32.1231 92.5784 30.7589 90.8732 30.5671C91.6832 27.4764 92.1095 24.2579 92.0669 21.0606C91.9816 17.2026 90.8306 13.2593 88.2515 10.2965C87.3563 9.23075 86.2266 8.39946 85.1182 7.58949C84.0311 5.92692 82.6456 4.45618 80.9831 3.36911C78.5105 1.74917 75.4412 0.896564 72.4997 1.45076C69.0253 2.09021 65.8707 4.09382 63.6326 6.80083C63.1211 6.63031 62.6095 6.54505 62.0766 6.50242C61.7356 4.94642 61.0109 3.34779 59.5615 2.53782C58.176 1.74917 56.4282 2.02626 55.1279 2.81492C53.6998 3.6462 52.8046 5.11694 52.2717 6.63031C51.5044 8.80445 51.1847 11.1065 50.8649 13.3872C50.3747 12.5559 49.7779 11.7886 49.0745 11.1278C49.1171 9.33732 49.0531 7.35502 47.8808 5.88428C47.1135 4.86116 45.7919 4.41355 44.5557 4.45618C44.3638 2.83623 43.6604 1.04577 42.0618 0.342373C40.3779 -0.424969 38.5235 0.257113 36.9036 0.832619C32.3635 2.58045 28.0365 4.79722 23.7096 6.97135C19.7663 8.95365 15.8656 10.8933 12.2421 13.3019C10.2811 14.6448 8.32011 16.1155 7.06252 18.1618C5.95414 19.9096 5.78362 22.2969 6.97726 24.0447C7.76592 25.281 9.19403 25.9417 10.6221 26.1123C10.75 27.583 11.4747 29.0111 12.7536 29.7998C14.3096 30.7803 16.2493 30.7163 17.9758 30.3966C18.2316 33.061 18.5087 35.7253 18.8497 38.3684C19.1268 40.3507 19.4039 42.3543 20.0434 44.2514C20.491 45.7221 21.4289 47.1289 22.857 47.811C21.4075 47.1289 19.745 47.0863 18.2316 47.5765C15.7377 48.3012 13.5423 49.7933 11.5813 51.4559C7.46751 54.9941 4.37683 59.6621 2.45848 64.7138C0.412232 70.0639 -0.333794 75.8829 0.135137 81.574C0.369602 84.4089 0.923793 87.2651 2.11743 89.8869C3.07661 91.9971 4.52603 93.9154 6.48702 95.2156C6.84937 95.4714 7.29699 95.6419 7.51014 96.0469C8.85299 98.2424 10.9205 100.033 13.3505 100.907C16.2493 101.951 19.4892 101.738 22.388 100.8C22.0257 101.909 22.1109 103.187 22.793 104.147C23.603 105.447 25.1377 106.129 26.651 106.129C26.4166 108.175 28.0152 110.072 29.9762 110.499C30.4238 115.209 30.978 119.92 31.7453 124.588C32.1077 126.698 32.4487 128.893 33.7063 130.684C34.5163 131.878 35.7526 132.73 37.138 133.114C37.6283 134.435 38.3743 135.714 39.504 136.567C40.7829 137.547 42.4455 137.888 44.0441 137.803C46.3675 137.654 48.6268 136.908 50.6944 135.842C53.6146 134.329 56.215 132.283 58.581 130.023C60.4993 128.169 62.2898 126.144 63.8245 123.97C64.2508 125.717 65.8494 127.039 67.5759 127.38C70.624 127.977 73.7786 125.696 74.482 122.733C74.9083 121.199 75.0788 119.621 75.2493 118.044C77.4661 120.133 79.6189 122.35 82.2193 123.97C82.2193 125.398 82.1767 126.868 82.4325 128.275C82.6883 128.339 83.0506 128.531 83.1785 128.169C83.2638 126.911 83.1359 125.654 83.2425 124.396C83.5196 124.417 83.818 124.46 84.0951 124.481C84.0524 126.655 84.1803 128.829 84.1803 131.004C84.223 131.302 84.2016 131.686 84.5214 131.835C84.7985 132.048 85.1182 131.728 85.374 131.622C85.4592 129.213 85.2887 126.783 85.2674 124.375C86.0987 124.161 86.9087 123.799 87.5907 123.288C88.8909 122.35 89.7649 120.986 90.8732 119.877C93.2392 119.174 95.5839 118.385 97.8219 117.319C100.337 116.147 102.767 114.783 104.856 112.928C105.517 114.207 106.327 115.486 107.584 116.254C108.693 116.957 110.099 117.106 111.314 116.616C112.828 116.04 113.936 114.74 114.831 113.44C116.323 111.181 117.389 108.665 118.37 106.15C118.86 106.534 119.478 106.683 119.99 107.003C120.693 108.069 121.332 109.198 122.249 110.094C123.016 110.882 124.082 111.479 125.212 111.458C126.683 111.5 128.047 110.626 128.878 109.454C130.114 107.728 130.754 105.681 131.372 103.678C131.5 103.699 131.734 103.742 131.862 103.784C132.246 104.871 132.736 105.958 133.567 106.811C134.356 107.642 135.422 108.197 136.573 108.282C138.043 108.388 139.493 107.749 140.58 106.79C142.029 105.489 142.903 103.699 143.543 101.887C144.14 103.486 145.035 105.191 146.697 105.894C148.488 106.641 150.641 106.022 151.898 104.594C153.177 103.166 153.731 101.29 154.179 99.4787C154.563 97.6242 154.904 95.7698 155.117 93.8941C156.737 95.7485 158.399 97.6029 160.446 98.9884C161.49 99.6918 162.684 100.267 163.984 100.289C165.476 100.331 166.883 99.5852 167.884 98.5408C169.163 97.1979 169.845 95.4288 170.336 93.681C171.274 94.5336 172.297 95.3009 173.426 95.8551C175.878 97.1127 178.734 97.4324 181.42 96.8995C184.532 96.3453 187.388 94.7254 189.668 92.5939C193.377 89.0982 195.807 84.4729 197.534 79.7196C198.77 76.16 199.665 72.4725 199.942 68.721C200.07 66.9945 200.07 65.1401 199.026 63.7333ZM95.051 37.1535C96.9693 34.5104 99.2287 32.0805 101.765 29.9916C103.534 28.5848 105.495 27.4125 107.478 26.3467C109.012 25.5794 110.59 24.8547 112.274 24.4923C112.998 24.3644 113.915 24.2152 114.512 24.7481C115.364 25.7073 116.046 26.9222 116.068 28.2225C116.068 29.3521 115.684 30.4179 115.3 31.4623C115.087 32.0165 114.917 32.592 114.533 33.0396C113.915 33.7644 113.126 34.3186 112.337 34.8514C109.247 36.919 105.858 38.5176 102.959 40.841C102.064 41.6083 101.083 42.4609 100.742 43.6545C100.636 44.1448 100.614 44.8269 101.126 45.1253C101.744 45.4876 102.49 45.5516 103.193 45.6155C106.668 45.85 110.206 45.4237 113.638 46.1697C114.853 46.4681 116.238 47.001 116.728 48.2586C117.56 50.5819 117.325 53.1824 116.43 55.4631C114.959 59.2358 112.21 62.3265 109.353 65.1188C107.328 67.165 104.771 68.6784 102 69.4671C100.87 69.7442 99.6337 70.0213 98.4827 69.6589C97.7367 69.4244 97.5662 68.5079 97.6727 67.8258C97.8859 66.419 98.6745 65.2041 99.3993 64.0104C100.167 62.8381 100.891 61.6231 101.829 60.6C102.98 59.3211 104.28 58.1488 105.431 56.8486C105.9 56.2731 106.433 55.6762 106.561 54.9302C106.604 54.2908 105.943 53.9284 105.41 53.7579C104.089 53.3529 102.703 53.5234 101.36 53.566C99.1435 53.6939 96.8628 53.9284 94.6886 53.2463C93.3671 52.8413 92.2161 51.8822 91.6406 50.6033C90.7667 48.6636 90.788 46.4255 91.3422 44.4219C92.0669 41.7788 93.4737 39.3702 95.051 37.1535ZM62.0553 19.3767C62.2898 15.4547 63.3769 11.4262 65.892 8.33552C67.6185 6.1827 70.0911 4.58407 72.8407 4.09382C74.7591 3.75278 76.7414 4.28566 78.4039 5.22352C80.7912 6.56637 82.5391 8.88971 83.349 11.4901C84.3295 14.4742 84.2016 17.6928 83.818 20.7622C83.3704 24.0447 82.5178 27.3485 80.6847 30.1408C79.2779 32.2936 77.189 34.0201 74.7804 34.8941C72.8834 35.5761 70.7732 36.0238 68.7909 35.363C66.4036 34.5956 64.6771 32.5068 63.6753 30.29C62.1619 26.9009 61.8635 23.0642 62.0553 19.3767ZM22.3241 39.7539C21.7699 36.4287 21.4502 33.061 21.1091 29.7145C20.7681 26.2615 20.4484 22.8297 20.1713 19.3767C18.3169 20.3359 16.3985 21.1672 14.3949 21.8066C13.2439 22.1477 12.0289 22.4461 10.814 22.3395C10.1532 22.2969 9.47112 21.8706 9.36455 21.1885C9.1514 20.1654 9.70559 19.1849 10.3664 18.4388C11.5813 17.0107 13.1373 15.9663 14.7146 14.9432C18.125 12.7904 21.7273 10.9786 25.3082 9.14549C29.3581 7.12056 33.3866 5.07431 37.607 3.41174C38.4809 3.11333 39.3761 2.72966 40.314 2.70834C40.8682 2.75097 41.0174 3.41174 41.1026 3.85936C41.3158 5.07431 41.1666 6.3319 40.8895 7.54686C40.7403 8.18631 40.5271 8.86839 39.9943 9.31601C39.0564 10.1473 37.948 10.7654 36.8609 11.3409C37.2872 12.3214 37.6496 13.3446 37.9906 14.3677C39.3761 18.5667 40.5058 22.8511 41.6995 27.1354C42.1258 23.7889 42.7865 20.4638 43.767 17.2452C44.2146 15.945 44.6409 14.5808 45.5149 13.4938C45.8133 13.1527 46.3461 12.7264 46.7938 13.0675C47.5824 13.6856 47.9661 14.6448 48.4137 15.4974C50.0763 19.1849 51.1207 23.0855 52.2504 26.9649C52.5488 21.6361 53.3801 16.3713 54.1688 11.0852C54.4459 9.50784 54.7016 7.90921 55.405 6.48111C55.81 5.67113 56.4921 4.88248 57.43 4.75459C57.8563 4.71196 58.1547 5.09563 58.3252 5.43667C58.7728 6.35322 58.8794 7.37634 59.0073 8.37815C59.2844 11.1917 59.2417 14.0266 59.1352 16.8402C58.922 21.7 58.581 26.5812 57.5365 31.3344C57.025 33.6365 56.4495 35.9598 55.469 38.1126C55.1066 38.8587 54.7016 39.6473 53.9982 40.1589C53.5719 40.4999 53.0177 40.2868 52.6128 40.0097C51.7388 39.3702 51.1207 38.4537 50.5239 37.5798C49.2024 35.5335 48.1153 33.3381 47.1135 31.1213C46.538 33.5086 45.5788 35.7893 44.4704 37.9847C43.6818 39.4768 42.8505 40.9902 41.6355 42.1838C41.2092 42.5462 40.6124 43.0577 40.0156 42.738C39.2056 42.2691 38.7367 41.3951 38.2677 40.6065C36.9675 38.1553 36.0936 35.5122 35.2623 32.8904C33.8342 28.3503 32.9177 23.6823 32.1716 18.993C31.8732 17.2452 31.6388 15.4974 31.319 13.7495C30.1041 14.5808 28.7612 15.2203 27.4397 15.8597L27.3971 15.9876C27.9939 19.9735 28.5694 23.9594 29.2088 27.924C29.6138 30.7163 29.8057 33.5512 29.9122 36.3648C29.9122 37.6863 30.0188 39.0292 29.7844 40.3507C29.4433 41.7575 28.3562 42.8659 27.12 43.548C26.2674 44.0169 25.2869 44.3793 24.2851 44.2727C23.7096 44.2087 23.3898 43.6545 23.1767 43.1856C22.7504 42.1199 22.5372 40.9262 22.3241 39.7539ZM22.9422 89.3327C20.2778 91.1232 17.4003 92.8497 14.1391 93.1694C11.7305 93.4678 9.13008 92.871 7.3183 91.1871C5.1868 89.2474 4.20631 86.4125 3.67343 83.6629C2.97004 79.613 2.99135 75.4353 3.67343 71.3854C4.69655 65.4385 7.36093 59.7474 11.4747 55.3139C13.2439 53.4168 15.2475 51.7116 17.5922 50.5819C18.53 50.1556 19.5531 49.772 20.5976 49.8785C21.8338 50.0704 22.7504 51.0935 23.3046 52.1379C24.2851 54.0137 24.6261 56.1238 24.8606 58.1914C25.1377 61.0903 25.095 64.0317 24.7114 66.9306C24.4769 68.6145 24.1572 70.341 23.262 71.8117C22.2815 73.4743 20.7041 74.9237 18.7432 75.2648C18.125 75.3287 17.3577 75.414 16.8888 74.9237C16.4198 74.3908 16.3132 73.6661 16.228 72.984C16.0148 70.6607 16.4198 68.3374 16.4838 66.014C16.4411 63.776 16.3132 61.5166 16.164 59.2785C15.0983 60.6426 14.4588 62.2839 13.8833 63.9038C13.0734 66.3124 12.4765 68.8063 12.1142 71.3428C11.8158 73.3464 11.9863 75.3713 12.2208 77.3749C12.4765 79.208 12.8389 81.1051 13.7341 82.7463C14.2244 83.6416 15.0343 84.4942 16.1001 84.6007C17.4216 84.7073 18.6153 83.9613 19.6384 83.2366C22.0257 81.4674 23.944 79.1867 25.9263 77.0126C26.5658 76.3092 27.2265 75.4353 28.271 75.3713C27.9086 70.746 27.7381 66.0993 27.7807 61.4739C27.8447 59.4916 27.8447 57.5093 28.2284 55.5483C28.3776 54.7171 28.8678 53.9923 29.3367 53.3103C30.1041 52.2232 31.0206 51.2001 32.1077 50.4114C32.7045 50.0064 33.3653 49.6228 34.1113 49.6441C34.7081 49.6441 35.241 50.0917 35.3902 50.6459C35.7312 51.7543 35.8165 52.9266 35.9018 54.0776C36.2428 59.108 36.1576 64.1596 36.051 69.19C38.0333 67.9537 40.1435 66.9306 42.2323 65.8648L42.2963 65.7582C41.87 62.0707 41.806 58.3619 41.9126 54.6744C41.9766 53.2463 42.0405 51.8182 42.3176 50.4114C42.5094 49.367 43.1276 48.4931 43.7031 47.6405C44.3852 46.6813 45.2164 45.7008 46.3888 45.3171C46.9856 45.104 47.689 45.3597 48.0513 45.8926C48.499 46.5534 48.6268 47.3634 48.7974 48.1094C49.2663 50.5819 49.4155 53.0971 49.586 55.6123C49.7352 58.298 49.8205 60.9837 49.8205 63.6907C50.4813 63.5628 51.1633 63.4989 51.8241 63.4775C51.7175 61.0263 51.7388 58.5538 51.8667 56.1025C51.9946 54.3973 52.1012 52.6921 52.6128 51.0509C52.8259 50.2835 53.4654 49.772 54.0622 49.303C56.3216 47.5765 58.7941 46.1484 61.3093 44.8482C63.59 43.7185 65.9347 42.6101 68.4498 42.1625C69.2172 42.0772 70.2616 41.9493 70.7519 42.6954C71.1782 43.6332 70.7732 44.699 70.624 45.6582C70.4534 46.9371 69.5795 47.9815 68.7056 48.8767C66.1691 51.3493 63.1211 53.225 60.0517 54.9728C59.9238 56.8699 59.8812 58.7882 59.8386 60.7066C61.6077 59.8966 63.4621 59.1932 65.3592 58.7456C66.2544 58.5751 67.2349 58.3619 68.0875 58.7456C68.663 59.044 68.5777 59.8114 68.4285 60.3442C68.0448 61.5379 67.1496 62.4757 66.2544 63.307C64.336 65.0335 62.1406 66.3977 59.8812 67.634C59.9025 68.9768 60.073 70.2984 60.1796 71.6199C62.5242 70.3197 65.0394 69.2539 67.6825 68.7424C69.4303 68.4013 71.2634 68.2734 73.0326 68.6997C72.6063 66.9306 72.4357 65.1188 72.2226 63.307C71.7323 58.7456 71.306 54.1629 71.5618 49.5588C71.6684 47.7683 71.8389 45.9566 72.4357 44.2514C72.9473 42.8019 74.0557 41.6509 75.292 40.7557C76.8693 39.626 78.5745 38.6881 80.1731 37.6224C82.6456 35.9172 85.31 34.4251 88.1662 33.466C88.9123 33.2741 89.7649 32.9331 90.4896 33.2954C91.1503 33.9562 91.2143 34.9793 91.2782 35.8746C91.2782 37.8782 90.8519 39.8818 90.1272 41.7575C89.8075 42.5248 89.4878 43.2922 88.9549 43.9316C88.2728 44.6564 87.3989 45.2105 86.5676 45.7221C84.6066 46.8731 82.5391 47.8323 80.4502 48.7062C80.5781 51.0509 80.5994 53.3955 80.5994 55.7402C82.3686 54.9302 84.1803 54.0989 86.1413 53.8431C86.8447 53.7579 87.8252 53.8431 88.1023 54.6318C88.422 55.6762 87.6973 56.6354 87.0792 57.4241C85.31 59.5129 83.0293 61.1116 80.7699 62.6036C80.7912 64.5433 80.5781 66.483 80.3223 68.4013C80.1092 69.8721 79.896 71.3428 79.5337 72.7922C79.2139 74.0498 78.1908 75.1582 76.8906 75.35C76.3364 75.414 75.633 75.4353 75.3346 74.8811C74.4394 73.4743 73.9704 71.8544 73.4375 70.2984C73.1605 70.9804 72.7768 71.6199 72.2439 72.1528C70.9011 73.5169 69.1959 74.4974 67.5759 75.5205C65.1247 76.97 62.78 78.6539 60.0304 79.4851C58.3678 79.9967 56.556 80.3591 54.8722 79.8049C53.6146 79.2933 53.2948 77.8012 53.0604 76.6076C52.5701 73.4956 52.357 70.341 52.0159 67.1864C51.2912 68.039 50.5452 68.8702 49.7139 69.6376C50.0336 71.7265 49.9057 73.8367 49.7139 75.9255C49.5647 77.311 49.3729 78.7178 49.0105 80.0606C48.7547 81.1051 47.9235 81.8511 47.0708 82.4266C46.4314 82.8103 45.6854 83.194 44.8967 83.0874C44.4065 82.6398 44.2999 81.9577 44.1081 81.3609C43.4047 78.526 43.1063 75.6058 42.7652 72.707C40.6763 73.9219 38.5022 74.9237 36.3068 75.9042C36.2428 79.208 36.1149 82.6185 34.7934 85.6878C34.2605 86.8601 33.4932 88.0538 32.2356 88.5014C31.6174 88.7572 30.9993 88.3096 30.637 87.8406C29.8057 86.7749 29.3581 85.4534 28.9531 84.1744C27.2479 86.1994 25.1164 87.8193 22.9422 89.3327ZM59.3483 111.564C58.3039 114.207 56.6626 116.595 54.8722 118.79C52.6341 121.497 50.055 123.948 47.1561 125.952C45.1312 127.337 42.9144 128.51 40.5058 128.979C39.4614 129.171 38.3317 129.298 37.3299 128.872C36.5199 128.531 35.987 127.785 35.6673 127.018C35.1344 125.739 34.9213 124.353 34.7081 122.989C33.9834 118.492 33.4505 113.952 33.0242 109.433C32.7258 105.937 32.3635 102.441 32.6193 98.9458C31.383 99.841 30.1041 100.672 28.7186 101.312C27.9299 101.653 27.0773 102.015 26.1821 101.951C25.6919 101.93 25.095 101.504 25.2442 100.949C25.5 100.097 26.0969 99.4147 26.6297 98.7539C28.4202 96.6438 30.4664 94.768 32.5553 92.9776C34.4097 91.3576 36.5412 90.1213 38.6727 88.9064C41.8487 87.1586 45.1525 85.5812 48.6055 84.4942C50.7584 83.8547 53.0391 83.2579 55.2985 83.6629C56.5347 83.876 57.6218 84.7713 57.9415 85.9862C58.517 88.1177 57.8776 90.3558 57.1315 92.3807C55.3837 96.7716 52.4636 100.651 48.9253 103.763C51.3125 103.251 53.849 102.974 56.2363 103.571C57.6218 103.912 58.9433 104.765 59.5401 106.108C60.3927 107.834 60.0304 109.838 59.3483 111.564ZM126.789 81.3609C126.363 85.2402 125.723 89.1195 124.913 92.9349C124.38 95.3222 123.826 97.6882 122.974 99.9902C122.59 100.949 122.206 101.93 121.546 102.74C121.29 103.038 120.885 103.379 120.459 103.209C119.84 102.889 119.457 102.292 119.052 101.759C116.942 98.5621 115.449 95.0238 113.659 91.6347C112.785 94.5122 111.847 97.3471 110.76 100.161C109.822 102.484 108.863 104.807 107.456 106.875C106.902 107.621 106.305 108.474 105.346 108.687C104.494 108.708 103.982 107.855 103.577 107.216C102.234 104.871 101.488 102.25 100.763 99.6705C99.5911 95.2583 98.7172 90.7608 98.163 86.242C97.9072 83.9613 97.6727 81.638 97.9072 79.3359C95.4773 81.5527 92.9408 83.6842 90.1059 85.3681C90.0633 87.0733 89.9354 88.7785 89.8928 90.4837C91.7259 89.8443 93.6016 89.2687 95.5199 88.9703C96.1381 88.9064 96.7775 88.7572 97.3743 88.9916C97.9712 89.4393 98.2056 90.2492 98.0351 90.9526C97.758 92.0184 97.2038 93.0628 96.266 93.681C94.1558 95.1517 91.7898 96.1961 89.4665 97.2619C89.3386 99.3081 89.168 101.354 88.9762 103.401C91.7472 102.356 94.5394 101.354 97.4809 100.907C98.3548 100.821 99.3353 100.651 100.124 101.141C100.742 101.653 100.38 102.569 100.103 103.187C99.1009 105.021 97.3317 106.278 95.6265 107.408C92.0029 109.646 87.9744 111.309 83.7967 112.118C83.008 113.696 82.0488 115.465 80.3223 116.147C79.5123 116.509 78.7876 115.87 78.1908 115.422C76.0806 113.76 74.1623 111.884 72.2439 110.008C70.7519 108.516 69.2811 107.024 67.917 105.426C67.853 108.09 67.7677 110.754 67.4907 113.419C67.3201 114.804 67.2349 116.254 66.6807 117.554C66.0412 118.705 64.5492 119.685 63.2276 119.025C62.3964 118.662 62.3537 117.682 62.1832 116.914C61.5438 113.12 61.224 109.284 60.9256 105.468C60.7125 102.143 60.3927 98.8179 60.5846 95.4927C59.7107 95.7272 58.7515 96.0043 57.8563 95.6846C57.3234 95.4501 57.3234 94.768 57.366 94.2778C57.6218 92.0184 58.9646 89.9295 60.819 88.6506C63.7605 86.5404 66.638 84.281 69.8993 82.7037C71.6897 81.8724 73.6294 81.1903 75.633 81.3822C77.125 81.5314 78.6597 82.2987 79.3631 83.7055C80.2797 85.5599 80.0665 87.7127 79.6829 89.6737C78.9368 93.0415 77.4235 96.2175 75.4198 99.031C77.9563 101.546 80.2797 104.275 82.2193 107.301C81.7504 103.081 81.2815 98.8818 81.1323 94.6401C81.0683 92.5726 81.111 90.5263 81.0044 88.4588C80.9404 86.6257 80.8126 84.7926 80.9191 82.9595C81.0044 82.1708 81.0896 81.3182 81.5799 80.6788C82.0915 80.1033 82.7948 79.7409 83.4343 79.3573C85.5445 78.1849 87.7826 77.2471 90.042 76.4158C91.7685 75.7976 93.5376 75.2434 95.3494 74.9024C96.3938 74.7106 97.4809 74.5827 98.5467 74.8598C99.4206 73.8153 100.401 72.7496 101.723 72.238C102.234 72.0675 103.002 71.9396 103.343 72.4938C103.982 73.4956 104.238 74.7106 104.515 75.8403C105.538 80.4656 106.028 85.1976 106.391 89.9082C107.456 86.306 108.458 82.6611 109.865 79.1867C110.249 78.2702 110.632 77.3323 111.208 76.5223C111.442 76.1387 111.89 75.7763 112.359 75.9895C113.254 76.3731 113.83 77.2257 114.384 77.9931C116.132 80.5722 117.453 83.4284 118.689 86.2846C119.35 80.6362 120.075 74.9877 121.311 69.4244C121.759 67.634 122.164 65.8009 123.038 64.1596C123.315 63.6694 123.741 63.0086 124.423 63.1365C125.169 63.2644 125.595 64.0104 125.894 64.6499C126.597 66.3764 126.81 68.2308 126.981 70.0639C127.237 73.7514 127.173 77.5668 126.789 81.3609ZM138.043 78.867C137.809 82.6398 137.553 86.4125 136.999 90.1427C136.594 92.6365 136.125 95.173 134.995 97.4537C134.42 98.5408 133.546 99.6918 132.246 99.8836C131.329 99.9902 130.775 99.0737 130.434 98.349C129.624 96.4093 129.39 94.2778 129.155 92.2102C128.75 87.9898 128.75 83.7695 128.814 79.5491C128.921 76.0321 129.027 72.4938 129.56 68.9981C129.795 67.6553 130.029 66.2272 130.839 65.0762C131.755 63.7546 133.056 62.6036 134.633 62.156C135.187 62.0281 135.848 62.0281 136.253 62.4544C136.807 63.0299 137.063 63.8186 137.297 64.5859C137.873 66.6322 138.022 68.7637 138.15 70.8952C138.278 73.5596 138.235 76.2239 138.043 78.867ZM191.629 65.5877C191.118 68.8916 190.223 72.1528 188.965 75.2648C187.686 78.3981 186.045 81.4248 183.785 83.94C182.229 85.6665 180.332 87.1372 178.137 87.9898C176.091 88.7785 173.767 89.0556 171.636 88.4375C169.121 87.7341 167.075 85.8797 165.689 83.7055C164.559 81.9151 163.728 79.9114 163.387 77.8226C163.344 80.3164 163.302 82.8316 162.918 85.3041C162.62 87.1372 162.236 89.013 161.213 90.5903C160.701 91.3363 159.849 92.0823 158.89 91.8479C157.781 91.5495 156.886 90.7608 156.012 90.0361C153.625 87.8406 151.6 85.2828 149.681 82.6824C148.786 81.4461 147.955 80.1885 147.145 78.8883C147.294 82.3627 147.443 85.8583 147.038 89.3327C146.676 91.5281 146.399 93.7662 145.589 95.8551C145.248 96.6864 144.715 97.6029 143.777 97.8161C143.223 97.944 142.733 97.5177 142.456 97.0914C141.859 96.1535 141.603 95.0664 141.369 94.022C140.814 91.315 140.601 88.544 140.452 85.7944C140.26 82.32 140.26 78.8457 140.281 75.3927C140.367 71.3215 140.452 67.2503 140.985 63.2004C141.177 62.0068 141.347 60.7492 141.944 59.6835C142.37 58.9587 143.33 59.044 144.012 59.3211C145.461 59.9179 146.655 61.005 147.784 62.0707C150.705 64.9056 153.198 68.1669 155.415 71.5773C155.287 65.9927 155.309 60.4082 155.927 54.845C156.183 52.8413 156.481 50.7951 157.27 48.898C157.611 48.0881 158.207 47.1502 159.209 47.1502C160.232 47.2355 160.765 48.2373 161.149 49.0686C161.98 51.0935 162.3 53.289 162.577 55.4631C162.875 57.9783 163.025 60.5148 163.131 63.0512C163.174 64.3941 163.153 65.7583 163.28 67.1011C163.344 65.0762 163.707 63.0726 164.09 61.0689C164.73 58.0635 165.625 55.1007 167.032 52.3511C168.14 50.1983 169.611 48.152 171.593 46.7026C173.384 45.4024 175.643 44.5711 177.881 44.8482C180.865 45.2319 183.402 47.342 184.873 49.8999C185.555 51.0935 186.024 52.4577 186.024 53.8645C186.066 56.1025 185.746 58.3832 184.809 60.4295C184.361 61.3034 183.764 62.2413 182.762 62.5397C181.441 62.8807 179.842 62.6463 178.947 61.5592C178.244 60.7279 178.308 59.5982 178.094 58.5964C177.86 57.488 177.711 56.2731 176.965 55.3565C176.56 54.8236 175.728 54.781 175.238 55.2073C174.428 55.8681 173.917 56.8272 173.426 57.7225C172.062 60.4934 171.21 63.4989 170.741 66.5256C170.357 69.19 170.25 71.9183 170.783 74.5614C171.124 76.1174 171.7 77.6947 172.83 78.8457C173.533 79.5491 174.556 80.0393 175.558 79.7622C177.114 79.272 178.457 78.2062 179.395 76.8847C180.162 75.8403 180.673 74.6253 181.142 73.4317C179.778 74.5614 178.222 75.6484 176.432 75.9255C175.259 76.1174 173.895 75.6271 173.362 74.4974C172.808 73.2611 172.979 71.7904 173.64 70.6181C174.108 69.7442 175.046 69.3392 175.856 68.8063C178.649 67.0798 181.569 65.5451 184.276 63.6907C185.853 62.6249 187.452 61.5379 189.221 60.8132C189.967 60.5574 190.819 60.2803 191.587 60.6C191.843 60.8345 191.885 61.2181 191.928 61.5592C191.992 62.8594 191.821 64.2236 191.629 65.5877Z" fill="black"></path><path d="M70.6447 28.0309C71.3054 28.7343 72.4138 28.7769 73.2025 28.308C74.5453 27.562 75.2913 26.1339 75.8242 24.7697C76.5702 22.7021 76.9326 20.4428 76.6981 18.2473C76.485 16.67 75.8882 15.05 74.6519 14.0056C73.9698 13.4301 72.9467 13.2596 72.1793 13.7711C70.9857 14.5598 70.3676 15.924 69.8773 17.2242C70.4315 16.9897 71.0283 16.8192 71.6251 16.7552C69.8347 18.6523 69.1526 21.3593 69.1952 23.8958C69.3018 25.3452 69.6002 26.9225 70.6447 28.0309Z" fill="black"></path><path d="M70.9018 89.3544C69.6655 89.802 68.6424 90.6546 67.5979 91.4433C67.5553 94.1716 67.5127 96.8999 67.534 99.6496C69.5163 97.646 71.4986 95.4931 72.607 92.8501C72.9906 91.8696 73.2464 90.6759 72.6283 89.7168C72.2446 89.1413 71.456 89.1413 70.9018 89.3544Z" fill="black"></path><path d="M48.6477 94.1501C48.7756 93.5533 48.9035 92.8072 48.4985 92.2744C48.0722 91.8054 47.3902 91.912 46.8573 92.0399C45.3865 92.4236 44.065 93.1909 42.7435 93.8943C42.2745 97.2621 41.9761 100.672 42.0614 104.083C43.5961 102.314 45.0668 100.502 46.3883 98.5623C47.3049 97.1981 48.2214 95.77 48.6477 94.1501Z" fill="black"></path><path d="M51.6126 109.539C50.7386 109.156 49.7582 109.369 48.8842 109.582C46.497 110.285 44.3655 111.607 42.4258 113.12C42.575 114.825 42.7455 116.509 42.98 118.215C43.0865 118.897 43.1505 119.621 43.5555 120.218C44.1736 120.154 44.6639 119.728 45.1541 119.387C47.0085 117.98 48.6924 116.36 50.2058 114.591C51.0371 113.568 51.8683 112.502 52.252 111.223C52.4652 110.626 52.252 109.838 51.6126 109.539Z" fill="black"></path></svg>
